<?xml version="1.0" encoding="UTF-8"?>
<svg width="100pt" height="100pt" version="1.1" viewBox="0 0 100 100" xmlns="http://www.w3.org/2000/svg">
 <path d="m16.305 21.305c-0.10156 0.003906-0.19922 0.03125-0.28906 0.070312-0.27734 0.12891-0.45312 0.39453-0.45312 0.68359 0 0.90234-0.03125 1.9297 0.49609 2.8945 0.18359 0.33594 0.41797 0.62891 0.67578 0.89453-2.5859 1.6055-3.9766 3.6875-4.6055 6.1406-0.73047 2.8594-0.75 6.2656-0.51562 8.7109 0.23438 2.4453 0.76172 3.9336 0.84766 4.4844 0.085937 0.55078 0.011718 0.62891-0.21875 1.3477-0.11719 0.35938-0.26563 0.79688-0.33984 1.3203-0.074219 0.52344-0.13281 1.2188 0.35547 1.9727 0.49219 0.75391 1.0977 0.94141 1.4648 1.0859 0.36719 0.14844 0.58984 0.25391 0.56641 0.23828-0.046874-0.035157 0.1875 0.41797 0.74609 1.3633 0.55859 0.94531 1.4922 2.0664 2.9961 2.8945 1.5039 0.82422 3.3672 1.3164 5.168 1.6055 1.207 0.19531 2.3594 0.28125 3.4805 0.33984-0.050782 1.1406-0.003907 2.3008 0.054687 3.4375-0.46094 1.3477-0.41797 2.6367-0.53906 3.4492-0.10937 0.72656-0.43359 1.3672-0.70312 2.0234-0.83594-0.26562-1.6289-0.54297-2.6328-0.76953-1.5508-0.35547-3.293-0.625-4.6484-0.69141-1.0352-0.046875-1.6523 0.10547-2.2734 0.23047-0.88672-0.91797-1.7695-1.9922-3.3672-2.2148-1.9609-0.27344-3.6992 0.71484-4.8828 2.0781-1.1875 1.3594-1.6836 3.1758-1.3203 4.9219 0.35937 1.7461 1.4453 3.2969 3.0977 4.0664 1.6523 0.77344 3.2734 0.51953 4.2461 0.28906 0.40234-0.09375 0.49609-0.26172 0.80078-0.42578 2.6953 1.4297 5.4414 2.8906 8.4453 3.8125 3.2539 0.99609 6.6016 1.3789 9.2617 0.99219 2.1211-0.30859 3.7227-1.1797 4.8906-2.25 1.0781 0.42969 2.3945 0.87109 4.332 1.2383 2.5703 0.48828 6.3086 0.875 10.711 0.57813 4.3828-0.29688 9.2812-1.2539 14.141-2.207 1.9141 0.3125 3.9102 0.41016 5.6719 0.39453 3.0859-0.03125 5.4844-0.48438 7.8555-1.3867 2.3711-0.90625 4.6875-2.2188 6.1367-3.2422 0.72266-0.50781 0.84766-0.82031 1.2422-1.2422 0.28516 0.27344 0.51172 0.53125 0.84375 0.80078 0.76172 0.625 1.6328 1.457 3.1328 1.3867 0.75-0.035156 1.625-0.52734 2.0586-1.2695 0.43359-0.74219 0.54297-1.5664 0.50781-2.5273-0.070313-1.918-0.59766-4.3477-1.6914-6.0625-0.54688-0.85938-1.3359-1.4414-2.0742-1.6523-0.73828-0.21094-1.3359-0.12891-1.6484-0.11719-0.3125 0.011718-0.66797 0-1.1172 0.058593-0.44922 0.058594-1.0742 0.24219-1.5664 0.71875-0.48438 0.46484-0.62109 0.8125-0.73438 0.97656 0.007813-0.019532-0.13281-0.007813-0.55078-0.085938-0.50391-0.09375-1.1992-0.24219-2.0039-0.26172-1.6094-0.039063-3.1602 0.43359-4.4297 0.99219-0.66406 0.29297-1.0781 0.61719-1.5977 0.94141h0.007813c0.046874-0.070312 0.089843-0.14844 0.125-0.22656 0.44531-1.8789 0.95312-3.9805 0.76562-6.668s-0.97266-6.0156-3.2852-8.3086c-2.3125-2.2969-5.6133-2.9922-8.2852-3.0859-2.6758-0.09375-4.8008 0.50391-6.3555 1.1133-1.5547 0.60938-2.625 1.2461-3.7969 1.8711s-2.2383 1.1523-3.8438 1.0938c-1.6016-0.054688-4.1562-0.84766-7.0117-1.5898-1.5195-0.39844-3.1211-0.77734-4.7188-0.99219 0.83594-1.5273 1.4727-3.7422 1.4727-6.6523 0-3.1953-0.75-7.1016-2.2109-10.559-1.4609-3.457-3.8984-6.7344-8.1289-7.543-1.6211-0.3125-3.3867-0.29297-5.1484-0.054687-0.49609-0.074219-0.98437-0.14453-1.4414-0.19531-1.5195-0.17188-2.7539-0.17578-3.8047-0.17578s-1.9258-0.011719-2.4492-0.14844c-0.51953-0.13281-0.87109-0.39453-1.3477-0.74609-0.16016-0.11719-0.36328-0.17578-0.56641-0.16016zm12.312 4.4023c0.67578-0.007812 1.3047 0.035157 1.8594 0.14062 2.9531 0.56641 4.5625 2.6875 5.8398 5.7031 1.2773 3.0195 1.9727 6.6523 1.9727 9.3359 0 2.6836-0.6875 4.5273-1.2539 5.4336-0.51562 0.8125-0.80078 0.92188-1.4336 1.1719-2.7695 0.41406-4.8438 1.8672-6.2109 3.2695-1.0391 1.0586-1.7578 2.2266-2.1875 3.4922-1.1797-0.058594-2.3398-0.14062-3.5-0.32812-0.65625-0.10547-1.3125-0.25781-1.9375-0.42969 0.44141-0.70312 0.83203-1.3828 1.0938-1.9805 0.39453-0.92188 0.39453-1.7344 0.16797-2.3711-0.23047-0.63281-0.60938-1.1641-0.94922-1.6602-0.11719-0.17969-0.30469-0.30078-0.51562-0.33594-0.21094-0.035157-0.42578 0.019531-0.59766 0.14844l-3.6602 2.7461c-0.23047-0.45703-0.53906-0.94922-1.1719-1.4141-0.46875-0.34375-0.82031-0.4375-1.0859-0.53516 0.039063-0.17578 0.082031-0.37109 0.16016-0.60938 0.20312-0.63281 0.52734-1.5898 0.33984-2.7852-0.19141-1.1953-0.61328-2.1758-0.81641-4.3008-0.20312-2.1211-0.15234-5.3789 0.42578-7.6328s1.3711-3.4492 4.3125-4.8672c2.3945-1.1523 6.2148-2.1562 9.1484-2.1914zm2.3438 11.102c-1.1758 0.035156-1.9844 0.67578-2.6016 1.1562-0.33984 0.26172-0.40234 0.75-0.14062 1.0898 0.26562 0.34375 0.75391 0.40625 1.0977 0.14062 0.61719-0.47656 1.043-0.80859 1.6953-0.82812 0.65234-0.019532 1.8125 0.40625 2.1836 0.73828 0.18359 0.16797 0.23828 0.29297 0.28516 0.50781 0.046875 0.21484 0.0625 0.51562 0.0625 0.89453 0 0.75781-0.027344 1.4727-0.27734 1.9922-0.25391 0.51953-0.8125 1.0195-1.3984 1.2148-0.58984 0.19531-1.3828 0.15234-2.2812 0.070312-0.42969-0.042968-0.8125 0.26953-0.85547 0.69922-0.019531 0.20703 0.042969 0.41016 0.17188 0.57031 0.13281 0.16016 0.32422 0.26172 0.53125 0.28125 0.89844 0.085937 1.9062 0.19922 2.9219-0.14063 1.0156-0.33594 1.8555-1.0781 2.3086-2.0195 0.45313-0.94141 0.42578-1.9102 0.42578-2.668 0-0.37891 0.015625-0.79297-0.089844-1.2422-0.097656-0.44922-0.34375-0.93359-0.76562-1.3125-0.83984-0.76172-2.1016-1.1836-3.2734-1.1445zm-12.805 0.65234c-0.20703 0.003906-0.40234 0.023437-0.58594 0.050781-0.58984 0.085937-1.043 0.28906-1.4375 0.45703-0.34766 0.15234-0.54297 0.66797-0.43359 1.1562 0.10547 0.48438 0.47656 0.75391 0.82422 0.60547 0.39453-0.16797 0.72656-0.3125 1.1875-0.37891 0.46094-0.066406 1.0586-0.011718 1.3359 0.14844s0.47656 0.50391 0.76172 1.0391h-0.003906c0.10547 0.19531 0.26172 0.32813 0.4375 0.36328 0.17187 0.035156 0.34766-0.03125 0.48828-0.17578 0.28906-0.30469 0.35156-0.88281 0.13281-1.293-0.28125-0.53125-0.64844-1.2578-1.3125-1.6445-0.46094-0.26562-0.94531-0.33594-1.3945-0.32812zm13.199 1.2891c-0.20312 0.003906-0.40234 0.035156-0.58203 0.078125-0.48438 0.11328-0.96875 0.30859-1.4258 0.48828-0.19531 0.074219-0.35156 0.22656-0.43359 0.41797-0.082031 0.1875-0.085937 0.40625-0.007812 0.59766 0.078125 0.19141 0.22656 0.34766 0.41797 0.42969 0.19141 0.082031 0.40625 0.082031 0.59766 0.007812 0.16016-0.0625 0.26953-0.09375 0.41797-0.14844v-0.003906c-0.007813 0.14062 0.019531 0.27734 0.082031 0.40234 0.089844 0.13281 0.13281 0.22266 0.14844 0.24609v0.003906c-0.003906 0.027344-0.011718 0.11719-0.046874 0.23438-0.042969 0.15625-0.23828 0.44922-0.007813 0.96875 0.23047 0.51562 0.86328 0.73047 1.3633 0.54688 0.5-0.18359 0.67578-0.45703 0.77344-0.55469 0.15625-0.15625 0.17969-0.22656 0.21094-0.30078 0.03125-0.070312 0.046875-0.14453 0.070313-0.21094 0.042968-0.13281 0.085937-0.27344 0.11719-0.42578 0.066407-0.30859 0.125-0.62109 0.089844-0.99609-0.054687-0.56641-0.25391-1.1133-0.76562-1.4844-0.32031-0.23047-0.67969-0.30078-1.0195-0.29688zm-13.379 2.793c-0.35156 0-0.62109 0.19922-0.76953 0.37109-0.14844 0.16797-0.22266 0.33203-0.28516 0.50781-0.12891 0.34766-0.1875 0.73047-0.1875 1.1523s0.0625 0.81641 0.1875 1.1641c0.0625 0.17188 0.14062 0.33594 0.28516 0.50781 0.14844 0.16797 0.41797 0.37109 0.76953 0.37109 0.35156 0 0.62891-0.19922 0.77344-0.37109 0.14844-0.16797 0.22656-0.33203 0.28906-0.50781 0.12891-0.34766 0.17578-0.74219 0.17578-1.1641s-0.046875-0.80469-0.17578-1.1523c-0.0625-0.17188-0.14062-0.33594-0.28906-0.50781-0.14844-0.16797-0.42578-0.37109-0.77344-0.37109zm3.2266 7.5234c0.11719 0.20312 0.28906 0.44141 0.34766 0.60547 0.12891 0.35938 0.16797 0.53516-0.12891 1.2227-0.22266 0.51953-0.67578 1.2773-1.1875 2.0977-0.25391-0.10547-0.49219-0.21094-0.69531-0.32031-0.6875-0.37891-1.1328-0.8125-1.4609-1.25zm43.555 0.085938c0.25391-0.007813 0.51563-0.003906 0.78906 0.007812 2.1602 0.074219 4.7695 0.77344 6.1953 2.1875 1.4258 1.4141 2.2148 4.1016 2.3672 6.3008 0.054687 0.79297 0.039063 1.5156-0.023437 2.2031-2.0586-1.7578-5.0977-2.6484-8.043-2.3438-2.9805 0.30859-5.5859 1.9023-7.1367 4.1211-1.5547 2.2148-1.8789 4.9023-1.4102 7.2617 0.36328 1.832 1.3438 3.6406 3.0781 4.9336-3.0625 0.55078-6.0039 1-8.6367 1.1758-4.0938 0.27734-7.582-0.09375-9.9062-0.53516-1.2812-0.24219-2.1797-0.49219-2.9492-0.76172 0.5-0.94531 0.84375-1.9219 1.1094-2.8516 0.4375-1.5195 0.71875-3.168 0.52344-5.0742-0.19141-1.9062-0.80469-3.9883-1.75-5.793-0.94531-1.8086-2.4883-3.6562-4.8867-3.8359-1.4766-0.11328-2.9688 0.26953-4.2539 1.0195 0.023437-0.37109 0.058593-0.71484 0.11328-1.0352 0.21875-1.2656 0.63281-2.1133 1.6836-3.1836 1.0469-1.0703 2.5664-2.1133 4.5703-2.3789 2.0039-0.26562 4.9219 0.26953 7.6602 0.98438 2.7383 0.71484 5.3125 1.6094 7.6992 1.6914 2.3906 0.085937 4.1797-0.79688 5.4258-1.4648 1.2461-0.66406 2.1445-1.2031 3.4609-1.7188 1.1484-0.45312 2.543-0.86328 4.3203-0.91016zm-30.926 10.125c0.96094 0.074218 1.6328 0.75391 2.3672 2.1602s1.2773 3.2148 1.4219 4.6523c0.14453 1.4414-0.054688 2.6016-0.42578 3.8984-0.37109 1.2969-0.86328 2.4883-1.6641 3.4609-0.80078 0.97656-1.7812 1.7148-3.75 2-1.9688 0.28516-5.043-0.007813-7.9102-0.88281-2.8672-0.87891-5.6992-2.3672-8.6055-3.9102-0.60938-0.32422-1.3594-0.20312-1.8398 0.29297-0.20312 0.20703 0.15625 0.03125-0.41797 0.16406-0.57812 0.13672-1.6523 0.19531-2.2188-0.066406-0.56641-0.26562-1.2188-1.1094-1.375-1.8711-0.15625-0.75781 0.042969-1.5664 0.62109-2.2305 0.57812-0.66406 1.6602-1.0898 2.1133-1.0273 0.45703 0.0625 1.3125 0.75 2.3242 1.793l-0.003906 0.003906c0.37891 0.39453 0.93359 0.55859 1.4688 0.4375 0.67578-0.15625 1.0938-0.27734 2.125-0.23047s2.707 0.3125 4.1055 0.63281c1.1641 0.26562 2.1797 0.57422 3.2031 0.90234l1.1172 2.2188-0.003906 0.003907c0.38672 0.76562 1.3203 1.0781 2.0898 0.69531 0.37109-0.18359 0.65625-0.51172 0.78516-0.90625s0.097656-0.82422-0.089844-1.1953l-1.0703-2.1367c0.44141-0.97656 0.87891-2.0859 1.082-3.4375 0.25391-1.6797 0.23047-2.9492 0.88672-3.7734 0.65234-0.82422 2.707-1.7227 3.6641-1.6523zm33.32 1.3477c1.9023 0.03125 3.9844 0.78906 5.0391 1.7109 0.57812 0.50391 0.96094 1.1172 1.2578 1.8359 0.007812 0.019531 0.015625 0.039063 0.023437 0.058594 0.24609 0.60938 0.43359 1.3164 0.61328 2.082l-1.0625 2.2812c-0.36328 0.78125-0.023438 1.707 0.75781 2.0703 0.375 0.17578 0.80859 0.19531 1.1992 0.054688 0.39062-0.14453 0.70703-0.43359 0.88281-0.8125l1.0859-2.3203c0.69531-0.47656 1.3516-0.90625 2.1836-1.2734 0.98047-0.43359 2.2383-0.76562 3.1602-0.74609 0.46094 0.011719 0.98047 0.11719 1.5273 0.21875 0.54688 0.10156 1.1172 0.27734 1.9609 0.058594s1.3516-0.83984 1.6211-1.2266c0.21094-0.30078 0.26172-0.37891 0.26953-0.41016 0.13281-0.011719 0.39062-0.027343 0.77344-0.042969 0.42188-0.015624 0.63672-0.011718 0.71875 0.011719 0.085938 0.023438 0.125-0.011719 0.33984 0.32422 0.42969 0.67188 1.1289 3.2695 1.1719 4.4414 0.007813 0.19141-0.003906 0.12891-0.015625 0.24609-0.20312-0.10547-0.32812-0.14453-0.70312-0.45312-0.58984-0.48438-1.1016-1.0117-1.6641-1.5938l-0.007813 0.003906c-0.31641-0.33203-0.76172-0.5-1.2148-0.46094-0.45312 0.039062-0.86328 0.28516-1.125 0.66797-0.39453 0.58203-0.52734 0.85156-1.7227 1.6953-1.1953 0.84375-3.4023 2.1055-5.4609 2.8945-2.0586 0.78516-4 1.1562-6.8281 1.1836s-6.4883-0.37109-8.4766-1.2422c-1.9883-0.87109-2.6406-2.0312-2.9609-3.6367-0.32031-1.6055-0.089844-3.3516 0.88672-4.75 0.98047-1.3984 2.8789-2.6172 4.9648-2.832 0.26172-0.027343 0.52734-0.039062 0.80078-0.035156z"/>
</svg>
