<?xml version="1.0" encoding="UTF-8"?>
<svg width="100pt" height="100pt" version="1.1" viewBox="0 0 100 100" xmlns="http://www.w3.org/2000/svg">
 <path d="m77.77 74.52-16.637-6.8086c-1.8281-0.74609-3.0234-2.5273-3.0234-4.5039v-1.5391c2.4297-0.87109 4.6953-2.1406 6.7109-3.75 3.2305-0.26562 6.4414-0.73438 9.6133-1.4102 1.7383-0.38281 3.2344-1.4844 4.1211-3.0312 0.88281-1.5469 1.0742-3.3945 0.51953-5.0898l-2.082-6.4844c1.3711-1.1484 2.1484-2.8555 2.1172-4.6445-0.027344-1.7891-0.86328-3.4688-2.2734-4.5742v-5.8633c0-9.582-5.1094-18.438-13.41-23.23-8.3008-4.793-18.527-4.793-26.824 0-8.3008 4.793-13.414 13.648-13.414 23.23v5.9297c-1.3672 1.1055-2.1719 2.7617-2.1992 4.5234-0.027343 1.7578 0.73047 3.4375 2.0625 4.5859l-2.1328 6.6289c-0.54688 1.6992-0.34766 3.5547 0.54688 5.1016 0.89844 1.5469 2.4062 2.6406 4.1562 3.0117 3.1641 0.64453 6.3633 1.0898 9.582 1.332 2.0117 1.6094 4.2695 2.875 6.6914 3.75v1.5234c0 1.9766-1.1914 3.7539-3.0195 4.5039l-16.645 6.8086c-4.7383 1.9375-8.7891 5.2422-11.641 9.4922-2.8555 4.25-4.3789 9.25-4.3789 14.367 0 0.89453 0.72656 1.6211 1.6211 1.6211h84.336c0.89453 0 1.6211-0.72656 1.6211-1.6211 0-5.1172-1.5234-10.117-4.3789-14.367-2.8516-4.25-6.9023-7.5547-11.641-9.4922zm-32.637-11.312v-0.58203l0.88672 0.21484c1.3164 0.23438 2.6445 0.35156 3.9805 0.35156h0.027344c0.6875 0 1.3633-0.050781 1.8711-0.097656 0.76953-0.0625 1.4766-0.14453 2.1523-0.26172l0.8125-0.20312v0.58203h0.003907c0.015624 1.457 0.42578 2.8789 1.1836 4.1172l-6.0508 6.0508-6.0508-6.0508c0.75781-1.2422 1.168-2.6641 1.1836-4.1211zm4.8672 14.758 0.1875 0.1875c1.7969 1.7969 4.3242 2.6484 6.8398 2.3125 2.5156-0.33594 4.7305-1.8281 5.9883-4.0312l1.5781-2.7617v13.332h-29.176v-13.332l1.5781 2.7617c1.2578 2.2031 3.4727 3.6953 5.9883 4.0312 2.5156 0.33594 5.0469-0.51562 6.8398-2.3125zm-17.836 9.0586h-3.2461v-11.734l3.2461-1.3242zm-5.7734 3.2461h47.223c0.69531 0 1.3164 0.44531 1.5352 1.1094l1.793 5.3789h-53.883l1.793-5.3789c0.21875-0.66406 0.83984-1.1094 1.5352-1.1094zm44.695-3.2461h-3.2461l-0.003906-13.062 3.2461 1.3242zm-11.18-16.309 2.1445 0.875-1.8516 3.2344c-0.75781 1.3281-2.0898 2.2227-3.6055 2.4258-1.5117 0.20312-3.0352-0.3125-4.1133-1.3906l-0.1875-0.18359 5.9492-5.9492c0.51172 0.39453 1.0703 0.72656 1.6602 0.98828zm15.742-18.887h-0.003907c-0.40625 0.73047-1.1094 1.25-1.9297 1.4258-1.5781 0.34766-3.375 0.66016-5.2383 0.91016l0.32813-0.4375-0.33203-0.25 0.41797 0.16016c0.32031-0.41797 0.625-0.86328 0.94922-1.375v-0.003907c0.49609-0.77734 0.94531-1.5859 1.3438-2.4219l0.27344-0.56641c0.15234-0.35547 0.30469-0.72266 0.44531-1.0859 0.10156-0.25391 0.19531-0.51562 0.3125-0.83203 0.11719-0.31641 0.23047-0.66797 0.33203-1.0117 0.125-0.41797 0.23047-0.83203 0.32812-1.2773 0.10156-0.44531 0.19922-0.92969 0.27734-1.3984l0.046875-0.23047v-0.058594h0.74219l1.957 6.0625 0.003906-0.003906c0.26172 0.79688 0.16797 1.6719-0.25781 2.3945zm-2.1055-17.09c1.2812 0.21094 2.2227 1.3203 2.2227 2.6211s-0.94141 2.4141-2.2227 2.625zm-47.023-7.918c-0.082031-6.2812 2.3555-12.336 6.7656-16.805 4.4141-4.4727 10.434-6.9922 16.719-6.9922 6.2812 0 12.301 2.5195 16.715 6.9922 4.4102 4.4688 6.8477 10.523 6.7656 16.805v4.5391c-0.66406-0.011719-1.3008-0.25-1.8047-0.67578-3.1406-2.6523-5.2148-6.3516-5.832-10.418l-0.60547-3.9219v0.003906c-0.09375-0.61719-0.52344-1.1289-1.1133-1.332-0.58984-0.19141-1.2383-0.046875-1.6953 0.37109l-0.20312 0.19531c-9.332 8.8477-21.309 14.391-34.094 15.781h-1.6172zm-0.027343 7.918v4.9492 0.29297c-1.2617-0.23438-2.1797-1.332-2.1797-2.6172 0-1.2812 0.91797-2.3828 2.1797-2.6133zm-0.18359 18.594c-0.82031-0.16797-1.5312-0.67969-1.9453-1.4062-0.42578-0.73438-0.51953-1.6094-0.26172-2.418l1.9648-6.1406h0.73438v0.058593l0.042969 0.22656c0.078125 0.45703 0.16797 0.91406 0.26953 1.3633 0.10547 0.44922 0.20703 0.88672 0.33984 1.3242 0.10547 0.35547 0.22656 0.69141 0.37109 1.1055 0.082031 0.24609 0.17188 0.48828 0.26562 0.73047 0.14453 0.38672 0.30859 0.76953 0.47656 1.1484l0.20312 0.41797v-0.003907c0.75391 1.5859 1.6797 3.0859 2.7695 4.4648-1.8672-0.24219-3.6602-0.53906-5.2305-0.87109zm10.707 1.7109v0.003906c-2.9961-2.5195-5.1992-5.8555-6.332-9.6055v-0.058594c-0.18359-0.64062-0.33984-1.2773-0.45703-1.9023-0.11719-0.625-0.21484-1.2852-0.27344-1.8945v-0.41797h-0.054687c0-0.23047 0-0.47656-0.023438-0.75v-5.9141c12.02-1.6055 23.312-6.6719 32.5-14.582l0.13281 0.83203c0.75 4.8633 3.2344 9.2891 6.9961 12.461 0.20703 0.17188 0.42188 0.32812 0.64453 0.46875v6.0039c0 0.53906-0.035157 1.0703-0.0625 1.5195l-0.035157 0.33203 0.003907 0.003907c-0.12109 1.2617-0.35547 2.5078-0.70313 3.7266l-0.035156 0.10938c-1.1211 3.7695-3.3203 7.125-6.3281 9.6602-0.046875 0.039063-0.089843 0.085938-0.125 0.14063-2.2617 1.8867-4.9141 3.25-7.7617 3.9922-0.55859 0.14453-1.1523 0.26953-1.8203 0.38672-0.29688 0.050781-0.58594 0.097656-0.87891 0.12891-0.23047 0.027344-0.46094 0.054688-0.69141 0.074219-0.53906 0.046875-1.0703 0.082031-1.6133 0.085937h-0.37109c-0.44531 0-0.88672-0.039062-1.3398-0.070312-0.31641-0.027344-0.64062-0.058594-1.0195-0.11328l-0.003907 0.003907c-0.88672-0.12891-1.7656-0.30859-2.6289-0.54297h-0.09375c-2.7148-0.73828-5.2461-2.0391-7.4258-3.8242-0.054688-0.09375-0.125-0.17969-0.19922-0.25781zm3.0781 15.676 0.003906 0.003906c0.58984-0.26562 1.1523-0.59766 1.6641-0.99219l5.9492 5.9492-0.1875 0.18359c-1.0781 1.0781-2.6016 1.5938-4.1133 1.3906-1.5156-0.19922-2.8477-1.0977-3.6055-2.4258l-1.8516-3.2344zm-16.637 6.8008 2.2148-0.90234v10.52h0.003906c-1.8047 0.25-3.3125 1.4922-3.9023 3.2148l-2.1328 6.4102-10.129-0.003907c0.29297-4.1914 1.7539-8.2148 4.2188-11.613 2.4648-3.4023 5.8359-6.043 9.7266-7.625zm56.898 19.238-2.1328-6.4102 0.003906 0.003906c-0.58984-1.7227-2.0977-2.9648-3.9023-3.2148v-10.52l2.2148 0.90234h0.003907c3.8906 1.582 7.2617 4.2227 9.7266 7.625 2.4648 3.3984 3.9258 7.4219 4.2188 11.613z"/>
 <path d="m55.992 53.137c0.48437-0.48438 0.63281-1.2148 0.375-1.8516-0.26172-0.63672-0.875-1.0547-1.5625-1.0625-0.44922-0.003906-0.88281 0.17578-1.1992 0.49219-1.0273 0.79297-2.3008 1.1836-3.5938 1.1055-1.293 0.078126-2.5703-0.31641-3.5938-1.1055-0.31641-0.32031-0.75-0.49609-1.2031-0.49219-0.6875 0.003906-1.3047 0.42188-1.5664 1.0586-0.26172 0.64062-0.10938 1.3711 0.37891 1.8555 1.6641 1.4297 3.8047 2.1758 5.9922 2.0859 2.1836 0.082032 4.3164-0.66016 5.9727-2.0859z"/>
 <path d="m40.418 39.012c-0.94141 0-1.707 0.76172-1.7109 1.7031v1.6016c0.046875 0.91016 0.79688 1.625 1.707 1.625 0.91016 0 1.6602-0.71484 1.707-1.625v-1.6016c0-0.9375-0.76172-1.7031-1.7031-1.7031z"/>
 <path d="m59.582 39.012c-0.94141 0-1.7031 0.76562-1.7031 1.7031v1.6016c0.046875 0.91016 0.79688 1.625 1.707 1.625 0.91016 0 1.6602-0.71484 1.707-1.625v-1.6016c-0.003907-0.94141-0.76953-1.7031-1.7109-1.7031z"/>
 <path d="m42.012 34.223h-3.1953c-0.91016 0.042969-1.625 0.79297-1.625 1.7031 0 0.91016 0.71484 1.6641 1.625 1.707h3.1953c0.46875 0.023438 0.92578-0.14453 1.2617-0.46875 0.33984-0.32031 0.53125-0.76953 0.53125-1.2383 0-0.46484-0.19141-0.91406-0.53125-1.2344-0.33594-0.32422-0.79297-0.49219-1.2617-0.46875z"/>
 <path d="m57.988 37.633h3.1953c0.91016-0.042968 1.625-0.79687 1.625-1.707 0-0.91016-0.71484-1.6602-1.625-1.7031h-3.1953c-0.46875-0.023437-0.92578 0.14453-1.2617 0.46875-0.33984 0.32031-0.53125 0.76953-0.53125 1.2344 0 0.46875 0.19141 0.91797 0.53125 1.2383 0.33594 0.32422 0.79297 0.49219 1.2617 0.46875z"/>
</svg>
