<?xml version="1.0" encoding="UTF-8"?>
<svg width="100pt" height="100pt" version="1.1" viewBox="0 0 100 100" xmlns="http://www.w3.org/2000/svg">
 <path d="m39.699 57.602c0 2.9336-4.3984 2.9336-4.3984 0 0-2.9336 4.3984-2.9336 4.3984 0"/>
 <path d="m37.602 52.398c1.1016 0 1.8984 0.5 2 0.80078 0.19922 0.5 0.60156 0.80078 1.1016 0.80078 0.10156 0 0.19922 0 0.39844-0.10156 0.60156-0.19922 0.89844-0.80078 0.69922-1.3984-0.5-1.3984-2.1016-2.3008-4.1016-2.3984-2.1016-0.10156-3.8008 0.89844-4.3984 2.3008-0.19922 0.60156 0.10156 1.1992 0.60156 1.5 0.60156 0.19922 1.1992-0.10156 1.5-0.60156 0.097656-0.60156 1.0977-0.90234 2.1992-0.90234z"/>
 <path d="m28.5 29.102c-0.5 0.10156-0.80078 0.39844-1.1016 0.89844-0.60156-1.3008-1.5-2.6016-2.8008-2.8008-0.59766-0.19922-1.1992 0.19922-1.3984 0.80078-0.10156 0.60156 0.30078 1.1992 0.89844 1.3984 0.69922 0.19922 1.5 2.1992 1.8008 3 0.39844 0.89844 0.60156 1.6992 1.5 1.6992 0.5 0 0.80078-0.19922 1.1016-0.60156 0.10156 1 0.10156 2.1992-0.19922 3.3984-0.10156 0.60156 0.19922 1.1992 0.80078 1.3984h0.30078c0.5 0 1-0.39844 1.1016-0.89844 0.80078-3.3008-0.19922-6.6016-0.80078-7.6016-0.20312-0.49219-0.70312-0.79297-1.2031-0.69141z"/>
 <path d="m64.699 57.602c0 2.9336-4.3984 2.9336-4.3984 0 0-2.9336 4.3984-2.9336 4.3984 0"/>
 <path d="m62.398 50.102c-2 0.10156-3.6992 1-4.1016 2.3984-0.29688 0.60156 0.10156 1.3008 0.70312 1.5 0.10156 0 0.19922 0.10156 0.39844 0.10156 0.5 0 0.89844-0.30078 1.1016-0.80078 0.10156-0.39844 0.89844-0.80078 2-0.80078s2 0.30078 2.1992 0.89844c0.19922 0.60156 0.89844 0.89844 1.5 0.60156 0.60156-0.19922 0.89844-0.89844 0.60156-1.5-0.60156-1.5-2.3008-2.3984-4.4023-2.3984z"/>
 <path d="m50 56.5c-6.6016 0-11.301 4.3008-12.898 8.3984-1 2.6992-0.69922 5.1016 0.89844 6.6016 1.3008 1.1992 2.6992 1.6992 4.1016 1.6992 0.30078 0 0.60156 0 0.89844-0.10156 0.89844 1.1992 2.6992 2.6992 3 2.1992 0.39844-0.69922 0.89844-2.5 1.1992-3.8984 0.89844-0.5 1.6992-1.1016 2.3984-1.6016 0.19922-0.10156 0.30078-0.19922 0.5-0.30078 0.19922 0.10156 0.30078 0.19922 0.5 0.30078 0.69922 0.5 1.6016 1.1016 2.3984 1.6016 0.30078 1.3984 0.80078 3.1992 1.1992 3.8984 0.30078 0.5 2.1016-1 3-2.1992 0.30078 0 0.60156 0.10156 0.89844 0.10156 1.3984 0 2.6992-0.5 4.1016-1.6992 1.6016-1.5 1.8984-4 0.89844-6.6016-1.793-4.0977-6.4922-8.3984-13.094-8.3984zm-0.19922 2.3008h0.19922 0.19922c1.1992 0 1.6016 0.19922 1.8008 0.30078-0.10156 0.5-1.1992 1.6016-2 2.1016-0.80078-0.39844-1.8984-1.5-2-2.1016 0.10156-0.10156 0.60156-0.30078 1.8008-0.30078zm10.699 11c-2.3984 2.1992-5.1016 0.60156-8.6992-1.8008-0.39844-0.30078-0.80078-0.5-1.1016-0.80078-0.10156-0.10156-0.30078-0.10156-0.39844-0.19922h-0.10156-0.10156-0.10156c-0.10156 0-0.30078 0-0.39844 0.10156-0.10156 0-0.10156 0.10156-0.19922 0.10156-0.39844 0.19922-0.80078 0.5-1.1016 0.80078-3.6016 2.5-6.3008 4.1016-8.6992 1.8008-0.89844-0.80078-1-2.3984-0.30078-4.1016 1-2.5 3.3984-4.8984 6.6016-6.1992 0.39844 1.8008 2.6992 3.6016 3.8984 3.8984h0.19922 0.19922c0.10156 0 0.19922 0 0.19922-0.10156 1.1016-0.39844 3.5-2.1016 3.8984-3.8984 3.1992 1.1992 5.6016 3.6992 6.6016 6.1992 0.60547 1.7969 0.50391 3.3984-0.39453 4.1992z"/>
 <path d="m78.898 31.898c0.60156-1.3008 1.1992-2.8008 1.8984-4.3984 0.89844-2.1992 1.8984-4.3984 2.8008-6.3984 0.19922-0.30078 0.10156-0.69922 0-1-0.19922-0.30078-0.5-0.5-0.89844-0.60156-2.1016-0.30078-5.8008 1.3984-8.3984 2.8984-0.69922 0.39844-1.3984 0.80078-2 1.3008-0.10156-0.10156-0.30078-0.19922-0.39844-0.19922-3-0.80078-5.6992-0.39844-7.6016 0.10156 0.39844-0.39844 0.89844-0.89844 1.3008-1.3008 0.39844-0.30078 0.5-0.80078 0.30078-1.3008-0.19922-0.39844-0.60156-0.69922-1.1016-0.69922-0.10156 0-3.3984 0.30078-7 0.89844-4.5 0.89844-6.6016 1.8984-7.6992 2.8008-3.1992-2.6992-11.801-3.5-14.602-3.8008-0.5 0-0.89844 0.19922-1.1016 0.69922-0.19922 0.39844-0.10156 1 0.30078 1.3008l1.3008 1.3008c-1.8984-0.5-4.6016-0.80078-7.6016-0.10156h-0.10156c-4.1016-2.6016-8.8008-4.3008-10.801-4-0.39844 0-0.69922 0.30078-0.89844 0.60156-0.19922 0.30078-0.19922 0.69922 0 1 0.89844 2 1.8984 4.1992 2.8008 6.3984 0.69922 1.6992 1.3008 3.1016 1.8984 4.3984-7.6992 4.8008-7.8008 13.5-7.8008 13.801 0 0.39844 0.19922 0.80078 0.60156 1 0.19922 0.10156 0.30078 0.10156 0.5 0.10156 0.19922 0 0.5-0.10156 0.69922-0.19922 0.39844-0.30078 0.89844-0.60156 1.3008-0.89844-1.6992 5.6992-0.19922 14-0.10156 14.398 0.10156 0.5 0.5 0.89844 1 0.89844s1-0.30078 1.1992-0.80078c0.10156-0.30078 0.19922-0.60156 0.30078-0.89844 0.30078-1 0.69922-2.1016 1.3008-3.1016 0.69922 3 2.3984 9.1016 7.3984 14.398 0.39844 0.69922 0.89844 1.3984 1.5 2.1016 4.1992 5.1016 11.199 7.6992 21 7.6992 9.8008 0 16.801-2.6016 21-7.6992 0.5-0.69922 1-1.3984 1.5-2.1016 4.8984-5.3008 6.6016-11.398 7.3984-14.398 0.69922 1 1 2.1016 1.3008 3.1016 0.10156 0.30078 0.19922 0.60156 0.30078 0.89844 0.19922 0.5 0.69922 0.80078 1.1992 0.80078s0.89844-0.39844 1-0.89844c0.10156-0.39844 1.6016-8.6992-0.10156-14.398 0.5 0.30078 0.89844 0.60156 1.3008 0.89844 0.19922 0.10156 0.39844 0.19922 0.69922 0.19922 0.19922 0 0.39844 0 0.5-0.10156 0.39844-0.19922 0.60156-0.60156 0.60156-1-0.19531-0.19922-0.29297-8.8984-7.9961-13.699zm-9.6992 39.5c-3.6992 4.6016-10.199 6.9023-19.199 6.9023s-15.5-2.3008-19.199-6.9023c-0.39844-0.5-0.80078-1.1016-1.1992-1.6992 0-0.10156-0.10156-0.19922-0.19922-0.30078-4-7-2.3984-16.801-1.1992-22.398 0.60156 0.30078 1.3984 0.5 2.3984 0.5 2 0 4.5-0.60156 7.1992-1.3008 4.3984-1.1016 9.8008-2.3984 11.199-0.30078l0.10156 0.10156s0 0.10156 0.10156 0.10156l0.10156 0.10156h0.10156s0.10156 0 0.10156 0.10156h0.10156 0.10156 0.10156 0.10156 0.10156 0.10156 0.10156 0.10156 0.10156 0.10156s0.10156 0 0.10156-0.10156h0.10156l0.10156-0.10156 0.20312-0.20312c1.3984-2.1016 6.8984-0.69922 11.199 0.30078 2.6992 0.69922 5.3008 1.3008 7.1992 1.3008 0.89844 0 1.6992-0.10156 2.3984-0.5 1.1992 5.6016 2.8008 15.398-1.1992 22.398-0.10156 0.10156-0.10156 0.19922-0.19922 0.30078-0.42969 0.60156-0.73047 1.1992-1.2305 1.6992zm11.699-29.199h-0.19922-0.10156s-0.10156 0-0.10156 0.10156c0 0-0.10156 0-0.10156 0.10156h-0.10156l-0.10156 0.10156s0 0.10156-0.10156 0.10156c0 0 0 0.10156-0.10156 0.10156 0 0 0 0.10156-0.10156 0.10156v0.10156 0.10156 0.10156 0.10156 0.10156 0.10156 0.10156 0.10156 0.10156 0.10156s0 0.10156 0.10156 0.10156c1.8008 2.5 2 7.5 1.6992 11.398-0.39844-0.69922-1-1.5-1.8008-2.1992-0.30078-0.30078-0.80078-0.39844-1.1992-0.30078-0.80078 0.19922-0.89844 0.80078-1.3008 2.3008-0.39844 1.6016-1.1016 4.3984-2.6016 7.6016 1-6.6016-0.5-13.398-1.3008-17.398-0.19922-0.80078-0.30078-1.3984-0.39844-2v-0.10156-0.30078c-0.10156-0.60156-0.69922-1-1.3008-0.89844-0.60156 0.10156-1 0.69922-0.89844 1.3008 0.10156 0.5 0.10156 1.1016-0.10156 1.3008-0.89844 0.89844-5-0.10156-8.1992-0.89844-4.8984-1.1992-10-2.3984-12.699-0.39844-2.6992-2.1016-7.8008-0.80078-12.699 0.39844-3.1992 0.80078-7.3008 1.8008-8.1992 0.89844-0.30078-0.30078-0.19922-0.89844-0.10156-1.3008 0.10156-0.60156-0.30078-1.1992-0.89844-1.3008-0.60156-0.10156-1.1992 0.30078-1.3008 0.89844v0.30078 0.10156c-0.10156 0.5-0.19922 1.1992-0.39844 2-0.80078 4-2.3008 10.801-1.3008 17.398-1.5-3.1016-2.1992-6-2.6016-7.6016-0.39844-1.5-0.5-2.1016-1.3008-2.3008-0.39844-0.10156-0.80078 0-1.1992 0.30078-0.80078 0.69922-1.3008 1.3984-1.8008 2.1992-0.30078-3.8984-0.10156-8.8984 1.6992-11.398 0 0 0-0.10156 0.10156-0.10156v-0.10156-0.10156-0.10156-0.10156-0.10156-0.10156-0.10156-0.10156-0.10156-0.10156s0-0.10156-0.10156-0.10156c0 0 0-0.10156-0.10156-0.10156 0 0 0-0.10156-0.10156-0.10156l-0.10156-0.10156h-0.10156s-0.10156 0-0.10156-0.10156h-0.10156-0.10156-0.10156c-0.30078-0.10156-0.89844-0.19922-3.1016 1.1992 0.5-2.6016 2-6.6992 6.1992-9.3984 1 2.1016 2 3.5 2.8984 4 0.19922 0.10156 0.39844 0.10156 0.5 0.10156 0.39844 0 0.80078-0.19922 1-0.60156 0.30078-0.60156 0.10156-1.1992-0.5-1.5-0.60156-0.30078-1.3984-1.8008-2.3008-3.6992 0-0.19922-0.10156-0.30078-0.10156-0.39844-0.10156-0.10156-0.10156-0.19922-0.19922-0.30078-0.69922-1.6016-1.5-3.3984-2.1016-4.8984-0.69922-1.6016-1.3008-3.1016-2-4.6016 3.8008 1 11.301 4.8984 13.301 8.8984 0.30078 0.60156 1 0.80078 1.5 0.5 0.60156-0.30078 0.80078-1 0.5-1.5-0.80078-1.6016-2.3008-3.1016-4-4.5 2.6016-0.19922 4.8008 0.39844 6.1016 0.80078 1.1016 0.30078 1.6992 0.5 2.3008 0.10156 0.30078-0.19922 0.5-0.60156 0.5-1 0-0.30078 0-0.80078-1.3008-2.3984 5.1016 0.69922 10.102 2 10.699 3.3984 0 0.10156 0.10156 0.19922 0.19922 0.30078v0.10156c0.10156 0.10156 0.10156 0.10156 0.19922 0.19922 0 0 0.10156 0.10156 0.19922 0.10156h0.10156 0.10156 0.30078 0.30078 0.10156 0.10156c0.10156 0 0.10156-0.10156 0.19922-0.10156 0.10156-0.10156 0.19922-0.10156 0.19922-0.19922v-0.10156c0.10156-0.10156 0.10156-0.19922 0.19922-0.30078 0.60156-1.3984 5.5-2.6992 10.699-3.3984-1.3008 1.5-1.3008 2.1016-1.3008 2.3984 0 0.39844 0.19922 0.80078 0.5 1 0.60156 0.5 1.3008 0.30078 2.3008-0.10156 1.3984-0.39844 3.8984-1.1992 6.8008-0.80078-1.6992 1.5-3 3-3.6992 4.5-0.30078 0.60156-0.10156 1.1992 0.5 1.5 0.60156 0.30078 1.1992 0.10156 1.5-0.5 2.1016-4.1016 8.8008-7.8984 12.301-8.8984-0.69922 1.5-1.3008 3.1016-2 4.6016-0.69922 1.6016-1.3984 3.3008-2.1016 4.8984-0.10156 0.10156-0.10156 0.19922-0.19922 0.30078-0.10156 0.10156-0.10156 0.30078-0.10156 0.39844-0.89844 1.8984-1.6992 3.3984-2.3008 3.6992-0.60156 0.30078-0.80078 1-0.5 1.5 0.19922 0.39844 0.60156 0.60156 1 0.60156 0.19922 0 0.39844 0 0.5-0.10156 0.89844-0.5 1.8984-1.8984 2.8984-4 4.1992 2.6992 5.6992 6.8984 6.1992 9.3984-2.168-1.5-2.8672-1.3008-3.168-1.3008z"/>
 <path d="m74.102 32.301c0.30078-0.80078 1.1016-2.8008 1.8008-3 0.60156-0.10156 1-0.69922 0.89844-1.3984-0.10156-0.60156-0.69922-1-1.3984-0.89844-1.3984 0.30078-2.1992 1.6016-2.8008 2.8008-0.30078-0.5-0.60156-0.80078-1.1016-0.89844-0.5-0.10156-1 0.10156-1.3008 0.60156-0.69922 0.89844-1.6016 4.1992-0.80078 7.6016 0.10156 0.5 0.60156 0.89844 1.1016 0.89844h0.30078c0.60156-0.10156 1-0.80078 0.80078-1.3984-0.30078-1.1992-0.30078-2.3984-0.19922-3.3984 0.19922 0.39844 0.60156 0.60156 1.1016 0.60156 0.89453 0.1875 1.1953-0.51172 1.5977-1.5117z"/>
</svg>
